<?xml version="1.0" encoding="UTF-8" standalone="no"?>
<!-- Created with Inkscape (http://www.inkscape.org/) -->

<svg
   width="16"
   height="16"
   viewBox="0 0 16 16"
   version="1.1"
   id="svg1"
   inkscape:version="1.4 (86a8ad7, 2024-10-11)"
   sodipodi:docname="icone 16x16.svg"
   xmlns:inkscape="http://www.inkscape.org/namespaces/inkscape"
   xmlns:sodipodi="http://sodipodi.sourceforge.net/DTD/sodipodi-0.dtd"
   xmlns="http://www.w3.org/2000/svg"
   xmlns:svg="http://www.w3.org/2000/svg">
  <sodipodi:namedview
     id="namedview1"
     pagecolor="#ffffff"
     bordercolor="#000000"
     borderopacity="0.25"
     inkscape:showpageshadow="2"
     inkscape:pageopacity="0.0"
     inkscape:pagecheckerboard="0"
     inkscape:deskcolor="#d1d1d1"
     inkscape:document-units="px"
     inkscape:zoom="5.3033009"
     inkscape:cx="74.01051"
     inkscape:cy="14.61354"
     inkscape:window-width="1600"
     inkscape:window-height="877"
     inkscape:window-x="-8"
     inkscape:window-y="-8"
     inkscape:window-maximized="1"
     inkscape:current-layer="layer1" />
  <defs
     id="defs1" />
  <g
     inkscape:label="Calque 1"
     inkscape:groupmode="layer"
     id="layer1">
    <g
       id="g2"
       transform="matrix(0.18502407,0,0,0.18502407,-24.428841,4.389748)">
      <path
         style="fill:#228c3a;fill-opacity:1"
         d="m 163.18174,1.4471674 c 6.42862,-4.46419 11.867,-8.11622 12.08528,-8.11563 0.21829,5.8e-4 5.65836,3.6531 12.08905,8.1167 6.4307,4.4636 11.75875,8.1156297 11.84011,8.1156297 0.0814,0 0.14793,-1.1025997 0.14793,-2.4502297 v -2.45023 L 194.7139,0.03886737 190.08369,-4.5856726 v -4.62719 -4.6271904 l -2.04431,-2.05637 c -1.12437,-1.13101 -2.13641,-2.05638 -2.24896,-2.05638 -0.11256,0 -0.20465,2.04128 -0.20465,4.53618 v 4.5361704 l -5.04122,-4.9991904 c -2.77267,-2.74956 -5.14855,-4.9992 -5.27972,-4.9992 -0.13118,0 -5.60169,5.27848 -12.1567,11.7299504 l -11.91819,11.72991 v 2.49141 c 0,1.37028 0.0683,2.4914097 0.15169,2.4914097 0.0834,0 5.41148,-3.6525097 11.84011,-8.1166997 z"
         id="path54" />
      <g
         id="g64"
         style="fill:#0c4836;fill-opacity:1">
        <path
           style="fill:#0c4836;fill-opacity:1"
           d="m 179.76494,8.6266974 v -2.26009 l -2.05052,0.0773 -2.05052,0.0773 -0.0791,1.82584 c -0.0435,1.0041997 -0.0175,1.9864696 0.0578,2.1828096 0.0982,0.25586 0.70144,0.35698 2.12966,0.35698 h 1.99268 z"
           id="path55" />
        <path
           style="fill:#0c4836;fill-opacity:1"
           d="m 174.87015,8.6377974 v -2.11667 l -2.05052,-0.0773 -2.05052,-0.0773 v 2.27122 2.2712196 l 2.05052,-0.0773 2.05052,-0.0773 z"
           id="path56" />
        <path
           style="fill:#0c4836;fill-opacity:1"
           d="m 179.76494,13.797177 v -2.11667 h -2.11667 -2.11666 v 2.11667 2.11666 h 2.11666 2.11667 z"
           id="path57" />
        <path
           style="fill:#0c4836;fill-opacity:1"
           d="m 175.00244,13.797177 v -2.11667 h -2.11667 -2.11666 v 2.11667 2.11666 h 2.11666 2.11667 z"
           id="path58" />
      </g>
      <path
         style="fill:#228c3a;fill-opacity:1"
         d="m 177.5624,50.417867 c 1.13864,-1.83226 2.26094,-3.64796 2.494,-4.03489 1.73713,-2.88395 13.15868,-21.29158 14.39084,-23.1931 1.98318,-3.06051 3.45545,-6.19888 4.11166,-8.76463 0.90919,-3.55489 1.02351,-3.32246 -2.98755,-6.0739896 -4.49958,-3.08665 -4.26434,-2.95762 -4.02666,-2.20875 0.40838,1.28668 0.18093,5.3539496 -0.40587,7.2577896 -0.72614,2.35592 -1.03913,2.90818 -7.78955,13.74466 -3.08678,4.95523 -6.1383,9.87169 -6.78114,10.92547 -0.64285,1.05378 -1.22835,1.91626 -1.30111,1.91661 -0.11117,5.4e-4 -9.28442,-14.70902 -13.59163,-21.79458 -2.33118,-3.83491 -3.2641,-7.42879 -2.84241,-10.9498196 0.10933,-0.91287 0.12683,-1.62724 0.0389,-1.5875 -0.0879,0.0397 -1.79172,1.20334 -3.78617,2.58579 -4.15517,2.8801296 -4.02256,2.6129496 -3.0978,6.2415296 0.68668,2.69438 1.7928,5.00345 4.36128,9.1043 2.58155,4.12173 13.55566,21.83762 14.12923,22.8093 1.73482,2.93899 4.61222,7.3532 4.79317,7.3532 0.12132,0 1.15219,-1.49912 2.29082,-3.33139 z"
         id="path59"
         inkscape:export-filename="..\path59.png"
         inkscape:export-xdpi="300"
         inkscape:export-ydpi="300" />
      <path
         id="path60"
         style="fill:#0c4836;fill-opacity:1;fill-rule:evenodd;stroke-width:0.0592256;stroke-linecap:round;stroke-linejoin:round"
         d="m 176.4772,41.653147 a 24.640001,7.716444 0 0 1 23.43113,7.70717 24.640001,7.716444 0 0 1 -24.64036,7.71639 24.640001,7.716444 0 0 1 -24.63984,-7.71639 24.640001,7.716444 0 0 1 21.1336,-7.63791 25.960001,8.1298249 0 0 0 -22.45341,8.05123 25.960001,8.1298249 0 0 0 25.95965,8.12988 25.960001,8.1298249 0 0 0 25.96017,-8.12988 25.960001,8.1298249 0 0 0 -24.75094,-8.12049 z" />
    </g>
  </g>
</svg>
